<?xml version="1.0" encoding="utf-8"?>
<!-- Generator: Adobe Illustrator 25.3.1, SVG Export Plug-In . SVG Version: 6.00 Build 0)  -->
<svg version="1.1"
	 id="svg11302" xmlns:inkscape="http://www.inkscape.org/namespaces/inkscape" xmlns:svg="http://www.w3.org/2000/svg"
	 xmlns="http://www.w3.org/2000/svg" xmlns:xlink="http://www.w3.org/1999/xlink" x="0px" y="0px" viewBox="0 0 146 175.1"
	 style="enable-background:new 0 0 146 175.1;" xml:space="preserve">
<style type="text/css">
	.st0{fill-rule:evenodd;clip-rule:evenodd;fill:#0EC2E0;}
	.st1{fill:#2641C4;stroke:#000000;stroke-width:3.556;stroke-miterlimit:21.2482;}
	.st2{fill-rule:evenodd;clip-rule:evenodd;fill:#FFFFFF;fill-opacity:0.5889;}
	.st3{fill:#FFFFFF;stroke:#000000;stroke-width:2.656;stroke-miterlimit:21.2482;}
</style>
<g id="layer1" transform="translate(-198.44145,-227.68399)">
	<g id="g3629" transform="translate(-40.682743,-319.41952)">
		<path id="path11837" class="st0" d="M241.7,721.3c-8.4-106.8,1.2-174.3,65.3-174.2c74.4,0,82,49.7,76.8,175.1
			c-8.4-17.4-45.1-11.7-67.1-11.7C274.9,710.5,241.7,721.1,241.7,721.3z"/>
		<g id="g18421" transform="matrix(5.3120435,0,0,5.3120435,-1073.8782,-1807.1067)">
			<path id="path18423" class="st1" d="M273.3,457.5c0,1.7,0.3,14.8-0.3,16.2c-0.6,1.5-3.1-3.7-4.2-2.5c-1.1,1.1-1.5,2.2-3,2.8
				c-1.5,0.6-3.1-2.9-4.8-2.9s-3.3,3.5-4.8,2.9c-1.5-0.6-1.7-1.1-2.9-2.2c-1.1-1.1-3.8,3.5-4.4,2.1c-0.6-1.5-0.3-14.6-0.3-16.3
				c0-6.8,5.5-12.4,12.4-12.4C267.8,445.2,273.3,450.7,273.3,457.5z"/>
			<path id="path18425" class="st2" d="M262.1,446.4c-5,0.2-7,0.5-10.4,5.1c-2.7,3.7-2.3,18.2,0.8,16.6c1.5-0.8-0.7-11.8,1.7-15.4
				C256.9,449.1,265.9,446.6,262.1,446.4z"/>
			<path id="path18427" class="st3" d="M259.4,455.9c0,1.9-1.5,3.5-3.4,3.5c-1.9,0-3.4-1.6-3.4-3.5s1.5-3.5,3.4-3.5
				C257.9,452.4,259.4,454,259.4,455.9L259.4,455.9z"/>
			<path id="path18429" class="st3" d="M271.5,456.2c0,1.9-1.5,3.5-3.4,3.5s-3.4-1.6-3.4-3.5s1.5-3.5,3.4-3.5
				S271.5,454.2,271.5,456.2L271.5,456.2z"/>
			<path id="path18431" d="M258.8,454.9c0,0.6-0.5,1-1.1,1c-0.6,0-1.1-0.5-1.1-1c0,0,0,0,0,0c0-0.6,0.5-1,1.1-1
				C258.3,453.9,258.8,454.3,258.8,454.9C258.8,454.9,258.8,454.9,258.8,454.9z"/>
			<path id="path18433" d="M267.2,457.1c0,0.6-0.5,1-1.1,1c-0.6,0-1.1-0.5-1.1-1c0,0,0,0,0,0c0-0.6,0.5-1,1.1-1
				C266.7,456.1,267.2,456.6,267.2,457.1C267.2,457.1,267.2,457.1,267.2,457.1z"/>
			<path id="path18435" class="st2" d="M272.1,458.4c-0.4,2.2,0,3.5-2.7,8.5c-0.9,1.6,1.5,2.5,3.1,4.1c0.9,0.9-1.4-2.6-0.7-4.2
				C272.9,464,272.6,456.9,272.1,458.4z"/>
		</g>
	</g>
</g>
</svg>
