<?xml version="1.0" encoding="utf-8"?>
<!-- Generator: Adobe Illustrator 25.3.1, SVG Export Plug-In . SVG Version: 6.00 Build 0)  -->
<svg version="1.1"
	 id="svg5697" inkscape:export-filename="/home/nathan/Desktop/plum.png" inkscape:export-xdpi="90" inkscape:export-ydpi="90" inkscape:output_extension="org.inkscape.output.svg.inkscape" inkscape:version="0.46" sodipodi:docname="chovynz_Orange_Icon.svg" sodipodi:version="0.32" xmlns:cc="http://creativecommons.org/ns#" xmlns:dc="http://purl.org/dc/elements/1.1/" xmlns:inkscape="http://www.inkscape.org/namespaces/inkscape" xmlns:ns1="http://sozi.baierouge.fr" xmlns:rdf="http://www.w3.org/1999/02/22-rdf-syntax-ns#" xmlns:sodipodi="http://sodipodi.sourceforge.net/DTD/sodipodi-0.dtd" xmlns:svg="http://www.w3.org/2000/svg"
	 xmlns="http://www.w3.org/2000/svg" xmlns:xlink="http://www.w3.org/1999/xlink" x="0px" y="0px" viewBox="0 0 128 128"
	 style="enable-background:new 0 0 128 128;" xml:space="preserve">
<style type="text/css">
	.st0{fill:#FF0000;stroke:#000000;stroke-width:6.4731;stroke-linecap:round;stroke-linejoin:round;}
	.st1{fill-rule:evenodd;clip-rule:evenodd;fill:#008000;stroke:#000000;stroke-width:5.733;stroke-linejoin:round;}
	.st2{fill:#FFFFFF;}
</style>
<sodipodi:namedview  bordercolor="#666666" borderopacity="1.0" gridtolerance="10000" guidetolerance="10" id="base" inkscape:current-layer="g3635" inkscape:cx="-6.4701639" inkscape:cy="53.056027" inkscape:document-units="px" inkscape:pageopacity="0.0" inkscape:pageshadow="2" inkscape:window-height="719" inkscape:window-width="951" inkscape:window-x="50" inkscape:window-y="40" inkscape:zoom="0.99096957" objecttolerance="10" pagecolor="#ffffff" showgrid="false" width="128px">
	</sodipodi:namedview>
<g id="layer1" transform="translate(-11.704 .73198)" inkscape:groupmode="layer" inkscape:label="Layer 1">
	
		<g id="g3635" transform="matrix(1.0777 0 0 .93380 -214.85 -177.08)" inkscape:transform-center-x="-53.542601" inkscape:transform-center-y="63.866729">
		<g id="g5868" transform="matrix(.77008 0 0 .90906 -83.159 107.62)">
			
				<path id="path3584" sodipodi:cx="397.00543" sodipodi:cy="191.56537" sodipodi:rx="46.210487" sodipodi:ry="42.500156" sodipodi:type="arc" class="st0" d="
				M480.8,190.6c0,25.4-21.6,46-48.2,46s-48.2-20.6-48.2-46l0,0c0-25.4,21.6-46,48.2-46S480.8,165.2,480.8,190.6z"/>
			<path id="path3660" sodipodi:nodetypes="czczc" class="st1" d="M452.2,169.3c0.1,0.1,20.4-8.6,30.7-6.1
				c10.4,2.5,33-9.1,49.3-25.4c-24.8-3.5-50.6-0.9-62,7.1S452.2,169.3,452.2,169.3L452.2,169.3z"/>
			
				<path id="path3681" inkscape:transform-center-x="20.10941" inkscape:transform-center-y="-41.513808" sodipodi:nodetypes="czczc" class="st1" d="
				M454.2,167.1c-0.2,0-10.3-19.5-20-24.1c-9.6-4.6-19.8-27.9-22.2-50.8c21.4,13,39.8,31.3,43.5,44.7
				C459.4,150.3,454.2,167.1,454.2,167.1z"/>
			<path id="path3750" sodipodi:nodetypes="csssz" class="st2" d="M430.6,156.2c4.5,4.6-5,0.4-17.9,11.9
				c-14.6,13.1-10.2,24.1-15,19.8c-4.8-4.3-1.4-17.9,7-25.6C413.1,154.6,426.1,151.6,430.6,156.2L430.6,156.2z"/>
		</g>
	</g>
</g>
</svg>
